<svg width="315.8" height="165.43" version="1.1" viewBox="0 0 83.555 43.769" xmlns="http://www.w3.org/2000/svg"><defs><filter id="filter933" x="-.28344" y="-.2081" width="1.5669" height="1.4162" color-interpolation-filters="sRGB"><feGaussianBlur stdDeviation="1.7999696"/></filter><filter id="filter861" x="-.30148" y="-.19935" width="1.603" height="1.3987" color-interpolation-filters="sRGB"><feGaussianBlur stdDeviation="1.7479205"/></filter><filter id="filter891" x="-.30148" y="-.19935" width="1.603" height="1.3987" color-interpolation-filters="sRGB"><feGaussianBlur stdDeviation="1.7479206"/></filter></defs><g transform="translate(-3.0289 -.56582)"><g style="shape-inside:url(#rect835);white-space:pre" aria-label="KULTUR BREMEN"><g transform="matrix(.8267 0 0 .8267 .5249 .098056)" fill="#ffb500"><g fill="#000" stroke-width="1.5272"><g transform="translate(.52917 .52917)" opacity=".30225"><path d="m9.1079 16.631-2.1472 2.3563v5.9815h-3.9319v-20.301h3.9319v9.2999l1.8405-2.4818 4.9358-6.818h4.7963l-6.832 8.9792 7.0829 11.322h-4.6569z"/><path d="m41.497 21.804h9.509v3.165h-13.441v-20.301h3.9318z"/><path d="m69.341 7.8613h-6.2604v17.108h-3.9319v-17.108h-6.1767v-3.1929h16.369z"/><path d="m95.553 17.384h-2.9699v7.5849h-3.9179v-20.301h6.8041q1.6871 0 3.0535 0.40434 1.3664 0.3904 2.3285 1.1573 0.97596 0.76685 1.4919 1.9102 0.52983 1.1433 0.52983 2.6491 0 1.0875-0.26492 1.9659-0.25101 0.86446-0.73898 1.5616-0.47401 0.68321-1.1573 1.1991-0.66929 0.51588-1.5058 0.89233l4.3641 8.3796v0.18126h-4.1967zm-2.9699-3.179h2.9001q1.6592 0 2.5515-0.83657 0.90627-0.85051 0.90627-2.3145 0-1.5198-0.87839-2.3563-0.87837-0.85051-2.5933-0.85051h-2.8862z"/><path d="m3.0289 49.241v-20.301h6.818q1.6592 0 3.0117 0.33461 1.3664 0.33464 2.3285 1.0179 0.96202 0.68321 1.4779 1.7289 0.52984 1.0457 0.52984 2.4679-0.0089 1.4222-0.76688 2.5515-0.73894 1.1294-2.189 1.715 0.8784 0.22307 1.5198 0.6693 0.64133 0.44615 1.0596 1.0596 0.43224 0.59956 0.62745 1.3246 0.20916 0.71102 0.20916 1.4779 0 1.464-0.50198 2.5794-0.50194 1.1154-1.4361 1.8683-0.93419 0.75289-2.2727 1.1294-1.3385 0.37645-3.0116 0.37645zm3.9319-8.9513v5.7863h3.4857q1.6034-0.0092 2.44-0.7808 0.85052-0.78081 0.85052-2.0356 0.01385-1.3943-0.75292-2.1751-0.76684-0.78078-2.3703-0.79473zm0-2.8304h2.9141q1.6313-0.0089 2.5097-0.68319 0.8784-0.66926 0.89235-1.9659 0-1.4221-0.8784-2.0356-0.8784-0.62742-2.5376-0.64135h-2.9001z"/><path d="m49.793 40.345h-8.3378v5.7305h9.7461v3.165h-13.678v-20.301h13.636v3.1929h-9.7042v5.117h8.3378z"/><path d="m59.232 28.94 1.9241 7.6267 2.189-7.6267h4.866v20.301h-3.5972v-6.0094l0.16731-9.4951-2.6631 8.8119h-1.938l-2.3843-8.4354 0.16728 9.1186v6.0094h-3.5972v-20.301z"/><path d="m84.037 40.345h-8.3378v5.7305h9.746v3.165h-13.678v-20.301h13.636v3.1929h-9.7042v5.117h8.3378z"/><path d="m102.05 49.241h-3.904l-5.6468-13.092v13.092h-3.9458v-20.301h3.9458l5.605 13.037 0.0089-13.037h3.9319z"/></g><path d="m9.1079 16.631-2.1472 2.3563v5.9815h-3.9319v-20.301h3.9319v9.2999l1.8405-2.4818 4.9358-6.818h4.7963l-6.832 8.9792 7.0829 11.322h-4.6569z"/><path d="m41.497 21.804h9.509v3.165h-13.441v-20.301h3.9318z"/><path d="m69.341 7.8613h-6.2604v17.108h-3.9319v-17.108h-6.1767v-3.1929h16.369z"/><path d="m95.553 17.384h-2.9699v7.5849h-3.9179v-20.301h6.8041q1.6871 0 3.0535 0.40434 1.3664 0.3904 2.3285 1.1573 0.97596 0.76685 1.4919 1.9102 0.52983 1.1433 0.52983 2.6491 0 1.0875-0.26492 1.9659-0.25101 0.86446-0.73898 1.5616-0.47401 0.68321-1.1573 1.1991-0.66929 0.51588-1.5058 0.89233l4.3641 8.3796v0.18126h-4.1967zm-2.9699-3.179h2.9001q1.6592 0 2.5515-0.83657 0.90627-0.85051 0.90627-2.3145 0-1.5198-0.87839-2.3563-0.87837-0.85051-2.5933-0.85051h-2.8862z"/><path d="m3.0289 49.241v-20.301h6.818q1.6592 0 3.0117 0.33461 1.3664 0.33464 2.3285 1.0179 0.96202 0.68321 1.4779 1.7289 0.52984 1.0457 0.52984 2.4679-0.0089 1.4222-0.76688 2.5515-0.73894 1.1294-2.189 1.715 0.8784 0.22307 1.5198 0.6693 0.64133 0.44615 1.0596 1.0596 0.43224 0.59956 0.62745 1.3246 0.20916 0.71102 0.20916 1.4779 0 1.464-0.50198 2.5794-0.50194 1.1154-1.4361 1.8683-0.93419 0.75289-2.2727 1.1294-1.3385 0.37645-3.0116 0.37645zm3.9319-8.9513v5.7863h3.4857q1.6034-0.0092 2.44-0.7808 0.85052-0.78081 0.85052-2.0356 0.01385-1.3943-0.75292-2.1751-0.76684-0.78078-2.3703-0.79473zm0-2.8304h2.9141q1.6313-0.0089 2.5097-0.68319 0.8784-0.66926 0.89235-1.9659 0-1.4221-0.8784-2.0356-0.8784-0.62742-2.5376-0.64135h-2.9001z"/><path d="m49.793 40.345h-8.3378v5.7305h9.7461v3.165h-13.678v-20.301h13.636v3.1929h-9.7042v5.117h8.3378z"/><path d="m59.232 28.94 1.9241 7.6267 2.189-7.6267h4.866v20.301h-3.5972v-6.0094l0.16731-9.4951-2.6631 8.8119h-1.938l-2.3843-8.4354 0.16728 9.1186v6.0094h-3.5972v-20.301z"/><path d="m84.037 40.345h-8.3378v5.7305h9.746v3.165h-13.678v-20.301h13.636v3.1929h-9.7042v5.117h8.3378z"/><path d="m102.05 49.241h-3.904l-5.6468-13.092v13.092h-3.9458v-20.301h3.9458l5.605 13.037 0.0089-13.037h3.9319z"/></g></g><g fill="#fff"><path transform="matrix(.80847 0 0 .80847 1.4357 .9402)" d="m26.465 36.352h3.0367v-7.7559h4.0063v20.758h-6.9575q-1.7251 0-3.1223-0.41348-1.3972-0.39921-2.3809-1.1833-0.99802-0.78415-1.5255-1.9532-0.54174-1.1691-0.54174-2.7089 0-1.112 0.27084-2.0103 0.25663-0.88391 0.75563-1.5968 0.48473-0.69862 1.1833-1.2261 0.68433-0.52754 1.5397-0.91249l-4.4625-8.5685v-0.18536h4.2914zm3.0367 3.2506h-2.9655q-1.6966 0-2.609 0.85537-0.92674 0.86975-0.92674 2.3667 0 1.554 0.8982 2.4095 0.89823 0.86966 2.6518 0.86966h2.9512z" filter="url(#filter933)" stroke="#fff" stroke-width="1.5617"/><path transform="matrix(.80847 0 0 .80847 1.4357 .9402)" d="m19.688 25.014-0.01065-13.758q0-1.7394 0.48477-3.0938 0.47041-1.3544 1.3829-2.2954 0.89814-0.92671 2.2098-1.4115 1.2974-0.48475 2.9655-0.48475 1.5683 0 2.8372 0.48475 1.2546 0.48474 2.1528 1.4115 0.89818 0.92671 1.3972 2.2811 0.48476 1.3687 0.48476 3.1081l-0.01014 13.758h-4.0101l-0.0129-13.758q-0.01425-2.0103-0.7283-3.0368-0.72712-1.0265-2.1101-1.0265-1.4685 0-2.2384 1.0265-0.78419 1.0265-0.79842 3.0368l-0.0092 13.758z" filter="url(#filter891)" stroke="#fff" stroke-width="1.5617" style="mix-blend-mode:normal"/><path d="m17.16 20.971-0.01-11.123q0-1.4062 0.39192-2.5013 0.38036-1.095 1.1181-1.8558 0.72612-0.74923 1.7866-1.1411 1.0489-0.3919 2.3975-0.3919 1.2679 0 2.2938 0.3919 1.0143 0.3919 1.7405 1.1411 0.72616 0.74922 1.1296 1.8443 0.39196 1.1065 0.39196 2.5128l-0.0097 11.123h-3.2404l-0.010312-11.123q-0.011-1.6253-0.58827-2.4552-0.58786-0.82991-1.7059-0.82991-1.1872 0-1.8096 0.82991-0.63401 0.82991-0.64552 2.4552l-9e-3 11.123z" stroke-width="1.2624"/><path d="m22.832 30.293h2.4551v-6.2704h3.239v16.783h-5.625q-1.3947 0-2.5243-0.33428-1.1296-0.32275-1.9249-0.95669-0.80687-0.63397-1.2333-1.5791-0.43799-0.94523-0.43799-2.1901 0-0.89906 0.21897-1.6253 0.20748-0.71462 0.61091-1.2909 0.3919-0.56483 0.9567-0.99128 0.55326-0.42651 1.2448-0.73772l-3.6078-6.9274v-0.14985h3.4695zm2.4551 2.6281h-2.3975q-1.3716 0-2.1093 0.69154-0.74924 0.70317-0.74924 1.9134 0 1.2564 0.72617 1.948 0.7262 0.7031 2.1439 0.7031h2.386z" stroke-width="1.2624"/><path transform="matrix(.80847 0 0 .80847 1.4357 .9402)" d="m71.728 24.775-0.01065-13.758q0-1.7394 0.48477-3.0938 0.47041-1.3544 1.3829-2.2954 0.89814-0.92671 2.2098-1.4115 1.2974-0.48475 2.9655-0.48475 1.5683 0 2.8372 0.48475 1.2546 0.48474 2.1528 1.4115 0.89818 0.92671 1.3972 2.2811 0.48476 1.3687 0.48476 3.1081l-0.01014 13.758h-4.0101l-0.0129-13.758q-0.01425-2.0103-0.7283-3.0368-0.72712-1.0265-2.1101-1.0265-1.4685 0-2.2384 1.0265-0.78419 1.0265-0.79842 3.0368l-0.0092 13.758z" filter="url(#filter861)" stroke="#fff" stroke-width="1.5617" style="mix-blend-mode:normal;shape-inside:url(#rect835);white-space:pre"/><path d="m59.624 20.971-0.009455-11.123q0-1.4062 0.39191-2.5013 0.38028-1.095 1.118-1.8558 0.7262-0.74923 1.7866-1.1411 1.0489-0.3919 2.3975-0.3919 1.2679 0 2.2938 0.3919 1.0143 0.3919 1.7405 1.1411 0.72618 0.74923 1.1296 1.8442 0.39191 1.1065 0.39191 2.5128l-0.0093 11.123h-3.2408l-0.01-11.123q-0.011971-1.6252-0.58888-2.4552-0.58788-0.82991-1.7059-0.82991-1.1872 0-1.8097 0.82991-0.63402 0.82991-0.64553 2.4552l-9e-3 11.123z" stroke-width="1.2624"/></g></g></g></svg>
