<svg width="400" height="200" version="1.1" viewBox="0 0 105.83 52.917" xmlns="http://www.w3.org/2000/svg"><defs><filter id="filter885" x="-.30148" y="-.19935" width="1.603" height="1.3987" color-interpolation-filters="sRGB"><feGaussianBlur stdDeviation="1.7479206"/></filter><filter id="filter933" x="-.28344" y="-.2081" width="1.5669" height="1.4162" color-interpolation-filters="sRGB"><feGaussianBlur stdDeviation="1.7999696"/></filter><filter id="filter861" x="-.30148" y="-.19935" width="1.603" height="1.3987" color-interpolation-filters="sRGB"><feGaussianBlur stdDeviation="1.7479205"/></filter></defs><g style="shape-inside:url(#rect835);white-space:pre" aria-label="KULTUR BREMEN"><path transform="matrix(.97795 0 0 .97795 1.1018 1.0187)" d="m26.465 36.352h3.0367v-7.7559h4.0063v20.758h-6.9575q-1.7251 0-3.1223-0.41348-1.3972-0.39921-2.3809-1.1833-0.99802-0.78415-1.5255-1.9532-0.54174-1.1691-0.54174-2.7089 0-1.112 0.27084-2.0103 0.25663-0.88391 0.75563-1.5968 0.48473-0.69862 1.1833-1.2261 0.68433-0.52754 1.5397-0.91249l-4.4625-8.5685v-0.18536h4.2914zm3.0367 3.2506h-2.9655q-1.6966 0-2.609 0.85537-0.92674 0.86975-0.92674 2.3667 0 1.554 0.8982 2.4095 0.89823 0.86966 2.6518 0.86966h2.9512z" fill-opacity="0" filter="url(#filter933)" stroke="#fff" stroke-width="1.5617"/><g fill="#fff"><path transform="matrix(.97795 0 0 .97795 1.1018 1.0187)" d="m19.688 25.014-0.01065-13.758q0-1.7394 0.48477-3.0938 0.47041-1.3544 1.3829-2.2954 0.89814-0.92671 2.2098-1.4115 1.2974-0.48475 2.9655-0.48475 1.5683 0 2.8372 0.48475 1.2546 0.48474 2.1528 1.4115 0.89818 0.92671 1.3972 2.2811 0.48476 1.3687 0.48476 3.1081l-0.01014 13.758h-4.0101l-0.0129-13.758q-0.01425-2.0103-0.7283-3.0368-0.72712-1.0265-2.1101-1.0265-1.4685 0-2.2384 1.0265-0.78419 1.0265-0.79842 3.0368l-0.0092 13.758z" filter="url(#filter885)" stroke="#fff" stroke-width="1.5617" style="mix-blend-mode:normal"/><path d="m20.123 25.248-0.01042-13.455q0-1.701 0.47408-3.0256 0.46004-1.3246 1.3524-2.2448 0.87834-0.90628 2.1611-1.3803 1.2688-0.47406 2.9001-0.47406 1.5337 0 2.7746 0.47406 1.227 0.47405 2.1054 1.3803 0.87838 0.90628 1.3664 2.2309 0.47407 1.3385 0.47407 3.0395l-0.0099 13.455h-3.9217l-0.01261-13.455q-0.01394-1.9659-0.71224-2.9698-0.71109-1.0039-2.0636-1.0039-1.4361 0-2.189 1.0039-0.7669 1.0039-0.78082 2.9698l-9e-3 13.455z" stroke-width="1.5272"/><path d="m26.983 36.525h2.9698v-7.5849h3.918v20.301h-6.8041q-1.6871 0-3.0535-0.40436-1.3664-0.39041-2.3284-1.1572-0.97602-0.76686-1.4919-1.9101-0.5298-1.1434-0.5298-2.6492 0-1.0875 0.26486-1.9659 0.25097-0.86442 0.73897-1.5616 0.47404-0.68322 1.1572-1.1991 0.66924-0.51591 1.5058-0.89237l-4.3641-8.3796v-0.18128h4.1968zm2.9698 3.179h-2.9001q-1.6592 0-2.5515 0.83651-0.90631 0.85057-0.90631 2.3145 0 1.5197 0.8784 2.3563 0.87843 0.85048 2.5934 0.85048h2.8862z" stroke-width="1.5272"/></g><g fill="#ffb500"><g fill="#000" stroke-width="1.5272"><g transform="translate(.52917 .52917)" opacity=".30225"><path d="m9.1079 16.631-2.1472 2.3563v5.9815h-3.9319v-20.301h3.9319v9.2999l1.8405-2.4818 4.9358-6.818h4.7963l-6.832 8.9792 7.0829 11.322h-4.6569z"/><path d="m41.497 21.804h9.509v3.165h-13.441v-20.301h3.9318z"/><path d="m69.341 7.8613h-6.2604v17.108h-3.9319v-17.108h-6.1767v-3.1929h16.369z"/><path d="m95.553 17.384h-2.9699v7.5849h-3.9179v-20.301h6.8041q1.6871 0 3.0535 0.40434 1.3664 0.3904 2.3285 1.1573 0.97596 0.76685 1.4919 1.9102 0.52983 1.1433 0.52983 2.6491 0 1.0875-0.26492 1.9659-0.25101 0.86446-0.73898 1.5616-0.47401 0.68321-1.1573 1.1991-0.66929 0.51588-1.5058 0.89233l4.3641 8.3796v0.18126h-4.1967zm-2.9699-3.179h2.9001q1.6592 0 2.5515-0.83657 0.90627-0.85051 0.90627-2.3145 0-1.5198-0.87839-2.3563-0.87837-0.85051-2.5933-0.85051h-2.8862z"/><path d="m3.0289 49.241v-20.301h6.818q1.6592 0 3.0117 0.33461 1.3664 0.33464 2.3285 1.0179 0.96202 0.68321 1.4779 1.7289 0.52984 1.0457 0.52984 2.4679-0.0089 1.4222-0.76688 2.5515-0.73894 1.1294-2.189 1.715 0.8784 0.22307 1.5198 0.6693 0.64133 0.44615 1.0596 1.0596 0.43224 0.59956 0.62745 1.3246 0.20916 0.71102 0.20916 1.4779 0 1.464-0.50198 2.5794-0.50194 1.1154-1.4361 1.8683-0.93419 0.75289-2.2727 1.1294-1.3385 0.37645-3.0116 0.37645zm3.9319-8.9513v5.7863h3.4857q1.6034-0.0092 2.44-0.7808 0.85052-0.78081 0.85052-2.0356 0.01385-1.3943-0.75292-2.1751-0.76684-0.78078-2.3703-0.79473zm0-2.8304h2.9141q1.6313-0.0089 2.5097-0.68319 0.8784-0.66926 0.89235-1.9659 0-1.4221-0.8784-2.0356-0.8784-0.62742-2.5376-0.64135h-2.9001z"/><path d="m49.793 40.345h-8.3378v5.7305h9.7461v3.165h-13.678v-20.301h13.636v3.1929h-9.7042v5.117h8.3378z"/><path d="m59.232 28.94 1.9241 7.6267 2.189-7.6267h4.866v20.301h-3.5972v-6.0094l0.16731-9.4951-2.6631 8.8119h-1.938l-2.3843-8.4354 0.16728 9.1186v6.0094h-3.5972v-20.301z"/><path d="m84.037 40.345h-8.3378v5.7305h9.746v3.165h-13.678v-20.301h13.636v3.1929h-9.7042v5.117h8.3378z"/><path d="m102.05 49.241h-3.904l-5.6468-13.092v13.092h-3.9458v-20.301h3.9458l5.605 13.037 0.0089-13.037h3.9319z"/></g><path d="m9.1079 16.631-2.1472 2.3563v5.9815h-3.9319v-20.301h3.9319v9.2999l1.8405-2.4818 4.9358-6.818h4.7963l-6.832 8.9792 7.0829 11.322h-4.6569z"/><path d="m41.497 21.804h9.509v3.165h-13.441v-20.301h3.9318z"/><path d="m69.341 7.8613h-6.2604v17.108h-3.9319v-17.108h-6.1767v-3.1929h16.369z"/><path d="m95.553 17.384h-2.9699v7.5849h-3.9179v-20.301h6.8041q1.6871 0 3.0535 0.40434 1.3664 0.3904 2.3285 1.1573 0.97596 0.76685 1.4919 1.9102 0.52983 1.1433 0.52983 2.6491 0 1.0875-0.26492 1.9659-0.25101 0.86446-0.73898 1.5616-0.47401 0.68321-1.1573 1.1991-0.66929 0.51588-1.5058 0.89233l4.3641 8.3796v0.18126h-4.1967zm-2.9699-3.179h2.9001q1.6592 0 2.5515-0.83657 0.90627-0.85051 0.90627-2.3145 0-1.5198-0.87839-2.3563-0.87837-0.85051-2.5933-0.85051h-2.8862z"/><path d="m3.0289 49.241v-20.301h6.818q1.6592 0 3.0117 0.33461 1.3664 0.33464 2.3285 1.0179 0.96202 0.68321 1.4779 1.7289 0.52984 1.0457 0.52984 2.4679-0.0089 1.4222-0.76688 2.5515-0.73894 1.1294-2.189 1.715 0.8784 0.22307 1.5198 0.6693 0.64133 0.44615 1.0596 1.0596 0.43224 0.59956 0.62745 1.3246 0.20916 0.71102 0.20916 1.4779 0 1.464-0.50198 2.5794-0.50194 1.1154-1.4361 1.8683-0.93419 0.75289-2.2727 1.1294-1.3385 0.37645-3.0116 0.37645zm3.9319-8.9513v5.7863h3.4857q1.6034-0.0092 2.44-0.7808 0.85052-0.78081 0.85052-2.0356 0.01385-1.3943-0.75292-2.1751-0.76684-0.78078-2.3703-0.79473zm0-2.8304h2.9141q1.6313-0.0089 2.5097-0.68319 0.8784-0.66926 0.89235-1.9659 0-1.4221-0.8784-2.0356-0.8784-0.62742-2.5376-0.64135h-2.9001z"/><path d="m49.793 40.345h-8.3378v5.7305h9.7461v3.165h-13.678v-20.301h13.636v3.1929h-9.7042v5.117h8.3378z"/><path d="m59.232 28.94 1.9241 7.6267 2.189-7.6267h4.866v20.301h-3.5972v-6.0094l0.16731-9.4951-2.6631 8.8119h-1.938l-2.3843-8.4354 0.16728 9.1186v6.0094h-3.5972v-20.301z"/><path d="m84.037 40.345h-8.3378v5.7305h9.746v3.165h-13.678v-20.301h13.636v3.1929h-9.7042v5.117h8.3378z"/><path d="m102.05 49.241h-3.904l-5.6468-13.092v13.092h-3.9458v-20.301h3.9458l5.605 13.037 0.0089-13.037h3.9319z"/></g></g><path transform="matrix(.97795 0 0 .97795 1.1018 1.0187)" d="m71.728 24.775-0.01065-13.758q0-1.7394 0.48477-3.0938 0.47041-1.3544 1.3829-2.2954 0.89814-0.92671 2.2098-1.4115 1.2974-0.48475 2.9655-0.48475 1.5683 0 2.8372 0.48475 1.2546 0.48474 2.1528 1.4115 0.89818 0.92671 1.3972 2.2811 0.48476 1.3687 0.48476 3.1081l-0.01014 13.758h-4.0101l-0.0129-13.758q-0.01425-2.0103-0.7283-3.0368-0.72712-1.0265-2.1101-1.0265-1.4685 0-2.2384 1.0265-0.78419 1.0265-0.79842 3.0368l-0.0092 13.758z" fill="#fff" filter="url(#filter861)" stroke="#fff" stroke-width="1.5617" style="mix-blend-mode:normal;shape-inside:url(#rect835);white-space:pre"/><path d="m71.488 25.248-0.0095-13.455q0-1.701 0.47406-3.0256 0.45994-1.3246 1.3523-2.2448 0.87839-0.90629 2.1611-1.3803 1.2688-0.47406 2.9001-0.47406 1.5337 0 2.7746 0.47406 1.227 0.47405 2.1053 1.3803 0.87842 0.90628 1.3664 2.2308 0.47406 1.3385 0.47406 3.0395l-0.0093 13.455h-3.9213l-0.0108-13.455q-0.01691-1.9659-0.71478-2.9698-0.71111-1.0039-2.0635-1.0039-1.4361 0-2.189 1.0039-0.76692 1.0039-0.78085 2.9698l-9e-3 13.455z" fill="#fff" stroke-width="1.5272"/></g></svg>
