<svg width="109.4" height="134.79" version="1.0" viewBox="0 0 109.4 134.79" xmlns="http://www.w3.org/2000/svg"><g transform="translate(-65.762 -110.36)"><path d="m135.14 244.31c-0.57718-1.2695-1.6413-1.4183-3.4371-0.48122-1.5552 0.80985-1.7901 0.78638-2.0522-0.21139-0.11916-0.45765-0.46936-0.81758-0.77663-0.80008-0.42044 0.0265-0.43034 0.0863-0.0396 0.24257 0.49877 0.20158 0.75517 1.391 0.3012 1.391-0.12126 0-1.3086-0.54979-2.6389-1.2208-2.6038-1.3145-4.8828-3.57-5.3034-5.2524-0.31289-1.2461-1.5492-2.0012-2.684-1.6413-0.9975 0.31691-5.2856-0.50467-6.4358-1.2346-0.4578-0.28927-2.238-0.8585-3.9556-1.2635-1.7196-0.405-3.9671-1.0878-4.9982-1.516-1.031-0.42854-2.9049-1.0468-4.1647-1.3734-1.26-0.32646-3.2278-0.88805-4.3723-1.2461-1.1444-0.35799-2.4278-0.65339-2.8503-0.65526-0.42252-3e-3 -1.3498-0.41873-2.0599-0.92553-0.71207-0.5045-2.0521-1.021-2.9794-1.1443-1.1229-0.15055-1.6882-0.43421-1.6882-0.85085 0-0.47934 0.48515-0.61039 2.0814-0.56928 3.0185 0.0782 12.146 1.3244 14.576 1.9874 2.8248 0.77284 6.4518 1.387 10.202 1.7294 3.5387 0.3209 8.3296 1.6608 8.3296 2.3279 0 0.26027-0.30139 0.31885-0.72968 0.14085-2.3084-0.95859-4.8612-1.5063-7.8073-1.6726l-3.3316-0.18767 3.9556 0.83708c2.1773 0.45981 4.8006 1.1308 5.8316 1.4889 3.2237 1.1189 3.8361 1.1754 4.3917 0.41451 0.96061-1.3126 0.26409-2.1185-2.6488-3.0635-3.075-0.99957-3.9319-1.1816-8.1985-1.741-8.4549-1.1129-14.324-2.6019-14.699-3.7306-0.1544-0.45974 0.50298-0.52214 3.5077-0.33063 7.8328 0.50087 13.14 1.1367 16.106 1.9309 4.3194 1.158 6.6708 1.2736 6.8644 0.33639 0.21134-1.0271-1.6609-1.6746-4.6989-1.6296-1.3753 0.0217-4.0924-0.21908-6.0389-0.53601l-3.5388-0.57503 6.0528 0.14854c3.3294 0.0819 6.5688 0.34445 7.1968 0.5831 1.0251 0.39113 1.1836 0.32685 1.5455-0.62804 0.62788-1.6489 0.48126-3.3646-0.42833-5.0647-0.45784-0.85484-0.83932-1.743-0.84719-1.9757-0.0471-1.4632-3.5408-3.715-5.1391-3.3139-1.3342 0.33442-3.9555-1.0427-5.1977-2.733-0.57137-0.77459-1.1737-2.451-1.4397-3.9984-0.25042-1.4633-0.58688-2.6626-0.74541-2.6626-0.67488 0-2.0384-3.081-2.0384-4.6049 0-3.9164-3.1496-0.44003-3.8696 4.2763-0.48893 3.1927-0.80775 3.7873-2.277 4.253-1.3105 0.41673-2.4198-0.3463-3.709-2.5451-0.92711-1.5806-1.1405-2.463-1.1581-4.7811-0.01196-1.565-0.04557-2.8444-0.07445-2.8444-0.1448 0-2.6488 6.6316-2.9089 7.7036-0.16435 0.68666-0.59879 1.4887-0.96053 1.7783-0.86468 0.69248-3.5506 0.30899-5.2702-0.75509-0.72577-0.44795-1.7821-0.81388-2.3494-0.81388-1.4339 0-2.3944-1.2244-2.6038-3.3159-0.2328-2.3533-0.45386-2.4686-1.0779-0.56523-0.28757 0.87446-0.97421 2.3103-1.5298 3.1905-0.55361 0.88039-0.91161 1.8468-0.79618 2.148 0.39124 1.021-0.71598 3.5897-1.9171 4.4426-1.1385 0.81174-2.4375 0.87643-4.0631 0.20544-0.44015-0.18189-0.88618 0.26409-1.5081 1.5024-0.76782 1.5317-1.0824 1.7781-2.4111 1.8916-1.2592 0.10765-1.7385-0.0962-2.7235-1.1503-1.1252-1.2031-1.1839-1.4437-1.0012-4.0846 0.29559-4.2743 0.28229-6.2971-0.06138-9.3235-0.56396-4.9649 1.7033-13.893 5.1907-20.439 3.7861-7.107 11.202-13.496 17.922-15.443 7.5862-2.197 11.974-2.2185 18.741-0.0961 5.4678 1.7157 6.3287 2.1813 9.3254 5.0472 1.5375 1.4711 3.1008 2.6741 3.4763 2.6741 0.71601 0 3.4313-1.688 3.4352-2.1361 3e-3 -0.1448 1.08-1.0818 2.3964-2.0814 1.3166-1.0016 2.5802-1.9739 2.8111-2.1598 0.22891-0.18783 1.6805-1.1424 3.224-2.1245 1.5431-0.98204 3.1454-2.2359 3.5583-2.7857 1.5689-2.0814 2.8756-6.1582 4.0534-12.641 0.77067-4.2412 2.8425-8.9362 5.7983-13.134 3.8792-5.5106 4.4798-8.2553 1.6941-7.7328-1.7548 0.33052-5.8395-1.1484-6.667-2.4122-0.32869-0.50277-1.072-2.365-1.6511-4.1374-1.2069-3.6993-1.0858-4.1551 1.5905-6.0135 1.5434-1.0741 1.6512-1.0895 2.7896-0.43623 1.1756 0.67471 1.1894 0.66901 2.0267-0.74917 1.0055-1.7058 2.719-2.6527 3.4606-1.9114 0.69647 0.69645 1.0251 0.60841 1.2754-0.34424 0.14675-0.56337 0.56737-0.83335 1.297-0.83335 0.59471 0 1.0797 0.18777 1.0797 0.41678 0 0.86249 1.7098 2.0814 2.9148 2.0814 0.97824 0 1.2502-0.18198 1.2502-0.84513 0-1.436 1.1892-1.4554 2.5724-0.0418 1.5396 1.5748 2.6937 1.6667 3.3334 0.26216 0.50852-1.115 1.6392-1.3693 2.322-0.52034 0.23093 0.28551 0.41472 1.3283 0.41068 2.3162-5e-3 0.9879 0.20549 2.011 0.46581 2.2713 0.62777 0.62787 0.60843 4.5853-0.0261 5.2193-0.38946 0.38914-0.38946 0.61017 0 0.99963 0.68468 0.68461 0.62589 1.9306-0.12533 2.6838-0.90573 0.90387-0.78837 3.2023 0.20744 4.1041 1.16 1.0506 1.0387 2.0521-0.31301 2.5648l-1.1444 0.43433 1.0506 0.43223c0.57704 0.23872 1.878 1.1229 2.8891 1.968 1.0115 0.847 2.7037 1.976 3.7602 2.512 2.0794 1.0523 2.9186 2.359 2.9186 4.5382 0 1.4008-0.97032 3.7679-1.9525 4.7577-0.71387 0.72187-0.69422 2.7408 0.0434 4.3839 1.387 3.091 1.5258 4.3234 1.2676 11.155-0.14285 3.7481-0.44011 7.6588-0.66322 8.6898-0.78643 3.6424-3.3823 8.0986-7.3671 12.649-0.7786 0.88809-1.9836 2.856-2.68 4.374-0.69643 1.5163-2.6291 4.8182-4.2979 7.3379-4.3821 6.614-9.4545 11.432-14.944 14.192-3.4644 1.7431-4.2175 2.3789-5.2875 4.476-0.95075 1.8603-1.7782 8.2807-1.4614 11.315 0.35403 3.3844 1.2363 4.6696 3.7149 5.4054 1.1718 0.34804 2.7386 0.63358 3.4823 0.63358 0.97014 0 1.6 0.315 2.2281 1.1132 0.48122 0.61233 1.2851 1.3166 1.786 1.5668 1.0505 0.52437 2.3102 2.5414 1.8662 2.9853-0.1663 0.16428-0.77858 0.0821-1.3634-0.18382-2.0482-0.93529-5.5264-0.42456-3.9125 0.57316 0.80221 0.49482 1.254 2.2752 0.79423 3.1338-0.5302 0.98796-1.3518 1.0232-2.7368 0.11356-0.78641-0.51454-2.0755-0.70034-5.0238-0.72777-2.1811-0.0217-4.0355 0.0746-4.1197 0.21139-0.0838 0.13879 0.30516 0.49687 0.86656 0.79608 1.3186 0.70625 1.8506 3.1045 0.8998 4.0554-0.59658 0.59669-0.70225 0.55757-1.162-0.45199zm-8.0107-2.7035c-0.37774-0.41871-0.68863-0.89598-0.68863-1.0584 0-0.16433-0.46763-0.80411-1.0408-1.4204-1.8976-2.048-1.0622-3.0145 0.95461-1.1071 1.6942 1.6041 5.9528 4.0062 6.6357 3.7442 1.0563-0.40497 0.31692-1.2519-1.657-1.8955-4.0436-1.3146-6.3851-4.3626-5.6966-7.4103 0.21513-0.96041 0.17807-1.7097-0.10372-2.0481-0.33056-0.39904-0.26992-0.53601 0.23283-0.53601 0.79619 0 0.92343-1.4945 0.15446-1.8056-0.31089-0.12517-0.22675-0.22301 0.20734-0.24274 0.76499-0.035 1.072-1.6998 0.31318-1.6998-0.22898 0-0.41669-0.16643-0.41669-0.36979 0-0.20346 0.32078-0.34436 0.71391-0.31114 0.39141 0.0312 0.78068-0.27166 0.86273-0.67094 0.0917-0.44976-0.10166-0.72971-0.5046-0.72971-0.35997 0-0.65535-0.18771-0.65535-0.41666 0-0.2289 0.37554-0.4166 0.83321-0.4166 1.027 0 1.0818-0.64558 0.1038-1.2149-0.65153-0.37953-0.62801-0.42642 0.20736-0.43819 1.076-0.0147 1.2579-0.74724 0.28165-1.1229-1.0328-0.39712-1.7997 0.72181-2.281 3.3256-0.46941 2.5451-1.8232 5.2742-2.6214 5.2899-0.26413 8e-3 -0.035 0.35194 0.51065 0.77058 0.9155 0.70637 0.9527 0.87451 0.48696 2.2849-0.27776 0.8394-0.75507 1.7764-1.0622 2.0835-0.30713 0.3071-0.60832 0.81969-0.66905 1.1406-0.20145 1.0602 1.79 4.5422 3.3159 5.8001 1.6589 1.3674 2.6644 1.6688 1.5827 0.47549zm17.952-3.091c-0.16048-0.50272-2.6722-2.2732-5.2838-3.7246-1.4713-0.81774-3.8304-4.2979-3.4999-5.1626 0.12521-0.32281 0.0143-0.58497-0.24637-0.58497-0.31494 0-0.405-0.68459-0.27-2.0698 0.11749-1.1834 0.0217-2.1791-0.22097-2.3298-0.25451-0.15645-0.12344-0.49308 0.32866-0.83925 0.61227-0.46744 0.64743-0.64554 0.18966-0.94865-0.39508-0.2602-0.4265-0.45778-0.10572-0.65723 0.72396-0.44805 0.54004-1.4831-0.26791-1.4985-0.69241-0.0127-0.69241-0.0397 0-0.56536 0.82746-0.62795 0.97227-1.5024 0.24851-1.5024-0.2837 0-0.19188-0.32092 0.22486-0.78058 0.66903-0.73941 0.65533-0.7942-0.24851-1.0348-1.338-0.35796-1.829 0.49495-2.1616 3.75-0.31688 3.0773-0.80788 4.3118-1.7216 4.3118-0.33435 0-0.60826 0.27957-0.60826 0.62391 0 0.34419 0.17996 0.62407 0.39903 0.62407 0.79815 0 2.0991 1.8526 2.0991 2.9891 0 1.2538-1.0994 2.8424-1.966 2.8424-0.29335 0-0.53208 0.0778-0.53208 0.17414 0 0.0959-0.11542 0.46947-0.2543 0.83139-0.33649 0.87836 0.81571 0.86659 2.3182-0.0217 1.1364-0.67112 1.1737-0.65731 2.5626 0.84508 0.77662 0.83931 3.0028 2.3378 4.9512 3.3314 3.9536 2.0208 4.3038 2.1403 4.0652 1.3967zm-10.752-0.17799c0.94499-0.25229 0.95866-0.29729 0.20934-0.5908-1.1561-0.45191-3.9339-0.4479-3.9339 8e-3 0 0.77075 1.9111 1.07 3.7246 0.58486zm4.6598-0.358c-0.77064-0.33451-1.6138-0.59267-1.874-0.57511-0.65723 0.0477 1.8819 1.1776 2.6507 1.1816 0.34445 0-8e-3 -0.2719-0.77666-0.60649zm-2.8639-1.8682c-0.51259-0.20736-1.9172-0.50274-3.1221-0.65936-1.2051-0.15434-2.6272-0.444-3.1632-0.64158-1.1404-0.4225-2.1149-0.0183-1.2579 0.52432 0.31109 0.19751 1.3147 0.37955 2.2302 0.40496 0.91746 0.0277 2.1342 0.19965 2.7074 0.38151 0.57327 0.18384 1.6022 0.34033 2.2908 0.35015 1.1482 0.0147 1.1737-0.0166 0.31489-0.36zm-0.79038-1.4475c-0.26214-0.68277-2.4491-0.86463-2.8384-0.23682-0.20947 0.33644 0.43612 0.53804 2.5706 0.80002 0.28938 0.0353 0.40485-0.20718 0.26783-0.5632zm10.202 0.25423c0.39331-0.24841 0.42442-0.44406 0.10361-0.64162-0.25421-0.15857-0.62779-0.18184-0.8332-0.0559-0.20554 0.12716-1.0428-0.0493-1.8605-0.39116-0.81777-0.34255-2.009-0.61635-2.6467-0.60848-1.0819 0.0129-1.1035 0.045-0.32681 0.49888 1.123 0.65324 3.6034 1.5318 4.3742 1.5455 0.34224 8e-3 0.87829-0.14881 1.1894-0.34635zm-31.173-1.295c-0.34415-0.22108-0.9996-0.38747-1.4572-0.36782-0.68679 0.0296-0.64956 0.0941 0.20728 0.36782 1.4731 0.47155 1.9797 0.47155 1.2499 0zm4.5464-0.26028c0.39908-0.35992-0.47925-0.62015-4.7401-1.4026-2.4706-0.45394-5.1721-1.0133-6.0017-1.2442-1.88-0.52237-2.9676-0.53991-2.9676-0.0451 0 0.20753 1.3596 0.5889 3.0205 0.84702 1.6607 0.2564 4.3311 0.90193 5.9332 1.434 2.5294 0.83709 4.1277 0.97621 4.7557 0.41071zm-7.3574-0.43209c-0.28753-0.11558-0.75513-0.11558-1.0408 0-0.28757 0.11519-0.0538 0.21111 0.52046 0.21111 0.57114 0 0.80591-0.0961 0.52029-0.21111zm17.536-0.34837c0.16435-0.42448-0.0217-0.62405-0.57903-0.62405-0.45182 0-0.81964 0.27971-0.81964 0.62405 0 0.34429 0.26013 0.62401 0.57905 0.62401 0.31888 0 0.68858-0.27972 0.81962-0.62401zm16.09 0.20739c0-0.22889-0.79627-0.39126-1.7684-0.36003l-1.7705 0.0551 1.4575 0.30515c0.80209 0.17022 1.5983 0.33252 1.7703 0.3619 0.17218 0.0322 0.31116-0.13296 0.31116-0.3619zm-13.52-1.9211c1.8486-1.211 1.4124-1.8094-1.784-2.453-1.7548-0.35211-1.831 0.51837-0.10368 1.1719 1.6198 0.61028 1.6237 1.1698 8e-3 0.70609-1.3497-0.38737-2.2086 0.23484-1.205 0.87049 0.87254 0.55366 1.9503 0.44999 3.0869-0.29539zm-32.495-1.4105c-0.14284-0.22881-0.57514-0.40295-0.96254-0.38722-0.57317 0.0259-0.5496 0.0959 0.12916 0.38722 1.115 0.47944 1.1288 0.47944 0.83338 0zm8.6152 0.13306c-0.30124-0.12126-0.66123-0.10556-0.79815 0.0332-0.13886 0.13701 0.10755 0.2368 0.5458 0.21716 0.48527-0.0202 0.58289-0.11748 0.25235-0.25039zm-5.9099-0.95474c-1.2597-0.4087-3.3196-0.85849-4.5796-1.0054-2.2632-0.26024-2.2536-0.25237 0.79625 0.57332 1.698 0.45978 3.1809 0.92897 3.2965 1.0444 0.11518 0.11564 0.78822 0.19199 1.4944 0.16825 1.1014-0.035 0.96063-0.14653-1.0075-0.78055zm3.8519 0.54603c-0.28568-0.11562-0.75311-0.11562-1.0407 0-0.28552 0.11523-0.0521 0.21113 0.52041 0.21113 0.57322 0 0.80783-0.096 0.52031-0.21113zm14.472-0.95675c0-1.2343-4.5815-2.5099-9.9945-2.7838-2.404-0.12104-4.9354-0.37731-5.622-0.56717-0.68678-0.19163-2.373-0.45001-3.7482-0.57721-2.3594-0.217-2.4279-0.19756-1.2482 0.33846 1.3126 0.59864 5.3757 1.3988 13.844 2.729 2.8053 0.44004 5.4287 0.99383 5.8296 1.2267 0.96434 0.56128 0.93892 0.57105 0.93892-0.36596zm11.43-0.54574c-0.28557-0.74332-1.8056-1.6295-2.2868-1.3341-0.67679 0.41864-0.44406 1.0407 0.53798 1.4339 1.3518 0.54368 1.9816 0.50646 1.7488-0.0998zm-37.145-0.57904c-0.2856-0.1155-0.75514-0.1155-1.0407 0-0.2876 0.11541-0.05348 0.20929 0.5204 0.20929 0.57116 0 0.80598-0.0941 0.52033-0.20929zm37.65-5.4756c0.54189-1.8722 0.13111-2.6252-0.88234-1.6138-0.74528 0.74736-1.2343 2.5803-0.85082 3.1983 0.51235 0.82955 1.2225 0.18206 1.7332-1.5845zm-3.179-3.2962c2.2947-1.6042 5.094-4.3077 4.7831-4.6187-0.0941-0.0961-0.6964 0.37941-1.3381 1.0563-0.64159 0.67686-2.0561 1.8545-3.1436 2.6175-1.0876 0.76481-1.9779 1.4496-1.9779 1.526 0 0.33458 0.72787 0.0818 1.6765-0.58108zm-0.17797-1.297c2.0306-1.4808 5.1645-4.8672 5.1645-5.5812 0-0.29539 0.37165-1.2284 0.82561-2.0756 0.54362-1.0172 0.63958-1.4671 0.2796-1.3302-0.29918 0.11534-0.85491 0.91355-1.2363 1.7762-0.74538 1.694-4.3625 5.679-6.2208 6.8547-1.0975 0.69633-1.5318 1.5396-0.79039 1.5396 0.19363 0 1.0837-0.53206 1.9778-1.1835zm-0.92917-1.2225c1.7606-1.3127 4.427-4.5211 4.427-5.325 0-0.2954-1.4984 0.97032-3.3315 2.8092-1.8309 1.8408-3.3314 3.4194-3.3314 3.5093 0 0.42461 0.82165 0.0609 2.236-0.99351zm9.0085-0.35236c0-0.55358-0.11348-0.58101-0.62404-0.15651-0.34438 0.28378-0.62615 0.58894-0.62615 0.675 0 0.0863 0.28177 0.15639 0.62615 0.15639 0.34238 0 0.62404-0.30315 0.62404-0.67488zm-8.8756-2.1342c2.1207-2.3141 4.1003-5.4364 3.7014-5.8354-0.53603-0.53418-1.7039 0.58691-2.7154 2.6018-0.55943 1.117-1.6373 2.6684-2.3943 3.4469-1.5082 1.5553-1.614 1.7645-0.89013 1.7645 0.26806 0 1.3008-0.88999 2.2985-1.9777zm-2.3182-0.035c0.35995-0.41859 1.0742-1.6042 1.5866-2.631 0.51461-1.0291 1.9485-2.9776 3.1888-4.3312 2.1146-2.3084 2.6233-3.1027 1.9854-3.1027-0.75512 0-5.1351 5.3191-6.4946 7.8875-1.5043 2.8406-1.6159 3.756-0.26615 2.1774zm-55.031-5.5636c0.0072-0.3874 0.19837-0.81966 0.42744-0.96054 0.22888-0.14275 0.41629-0.56555 0.41629-0.94096 0-0.42644-0.14496-0.53403-0.3848-0.2877-0.52857 0.54391-2.1212 4.832-2.0799 5.6008 0.04331 0.808 1.6065-2.4825 1.6209-3.4116zm0.76333 2.3591c-0.12813-0.12695-0.36112 0.10373-0.51743 0.51453-0.22594 0.59267-0.17821 0.63974 0.2332 0.23267 0.28462-0.28337 0.41256-0.61794 0.28424-0.7472zm53.544-0.0109c0.14087-0.37181 0.0719-0.53815-0.16431-0.3933-0.22689 0.14086-0.41079 0.4324-0.41079 0.64742 0 0.59879 0.29742 0.46563 0.5751-0.25412zm-8.9147-6.7666c0.23497-0.5243 0.42651-1.4241 0.42651-1.9973 0-0.57317 0.25641-1.5493 0.5693-2.1676 0.31297-0.61814 0.70239-1.874 0.8648-2.7896 0.29727-1.6686 1.1658-4.7378 2.007-7.0795 0.58477-1.6334 3.3472-6.3246 4.6598-7.9129 1.2401-1.5026 1.5081-0.47551 0.28356 1.0895-2.9088 3.717-5.4463 9.4136-6.0995 13.694-0.20936 1.3654-0.19175 1.3907 0.26008 0.41678 0.49499-1.0644 1.0858-2.4924 2.0247-4.8927 0.28969-0.74331 0.69246-1.3538 0.89416-1.3538 0.50079 0 0.5242-0.0996-0.9176 4.028-1.9112 5.4736-1.9053 5.4481-1.0897 4.779 0.69462-0.56924 2.7896-4.648 2.7896-5.4284 0-0.23086 0.59864-1.3069 1.3284-2.3906 1.4926-2.2106 2.1559-1.7977 0.75512 0.46955-0.49699 0.80211-0.82748 1.6862-0.73551 1.9622 0.0917 0.27783 2.0248-1.9858 4.2939-5.0256 2.2694-3.042 4.1922-5.3328 4.2725-5.0921 0.0799 0.24265-0.2641 1.0154-0.76491 1.7196-1.1933 1.6745-0.71417 2.099 0.76877 0.68064 1.3048-1.2519 2.3631-1.434 2.7329-0.47333 0.18582 0.48703 0.43429 0.54182 1.0271 0.22482 0.42831-0.22872 1.4259-0.31286 2.2143-0.1837 1.7685 0.28553 4.3507-0.85305 7.1208-3.142 1.9816-1.6372 3.3079-1.8993 5.4187-1.0678 0.82557 0.32661 3.4234-2.1147 4.0769-3.8284 0.48911-1.2872 1.2226-1.2442 1.2226 0.072 0 1.0604-0.55949 2.3104-1.6276 3.6406-1.0565 1.3167-0.21908 1.166 1.2031-0.21504 1.6805-1.6317 4.0278-5.2075 4.4033-6.708 0.15259-0.60265 0.46373-1.0955 0.69643-1.0955 0.23096 0 0.31512 0.32858 0.18976 0.72974-0.74332 2.3571-0.77262 2.6018-0.32078 2.6018 0.26411 0 0.58694-0.27981 0.71799-0.62416 0.13306-0.34429 0.43231-0.62398 0.66707-0.62398 0.71406 0 1.9152-1.651 3.2317-4.4367 0.68677-1.4536 1.4418-2.6428 1.6764-2.6428 0.24668 0 0.15673 0.52207-0.20731 1.2284-0.35016 0.67498-0.63572 1.7059-0.63572 2.2907 0 0.5831-0.18781 1.0604-0.41663 1.0604-0.22894 0-0.41674 0.28176-0.41674 0.626 0 0.91542 0.70034 0.761 0.95458-0.20939 0.11939-0.45783 0.5008-0.8314 0.84718-0.8314 0.36379 0 0.93901-0.81369 1.3694-1.9386 0.40682-1.066 1.1796-2.4628 1.7176-3.1026 0.64936-0.77079 1.1914-2.2809 1.6041-4.4738 0.55752-2.9598 0.55547-3.6054-0.0166-6.0682-0.7003-3.0244-1.4672-4.4407-3.3335-6.17-1.6821-1.5533-3.5954-2.4005-5.4323-2.4005-2.0344 0-3.5624-0.95657-4.7066-2.946-0.78451-1.3634-0.92553-2.1851-0.87072-5.0668 0.10181-5.3816 0.1722-5.1624-1.8996-5.9527-2.3532-0.89789-2.9793-1.6354-3.257-3.8382-0.25634-2.0284 0.32279-2.41 0.74532-0.4891 0.30523 1.3871 2.2692 2.8798 3.7933 2.8837 1.6999 3e-3 2.0383 1.0406 1.9248 5.9234-0.15653 6.841 0.54571 7.5784 7.2558 7.6196 4.9669 0.0319 4.9336 0.0679 3.2784-3.6719-0.73132-1.657-2.2083-3.5231-5.217-6.5924-4.7321-4.8301-4.9767-5.6067-1.62-5.1452 2.7348 0.37573 2.6705-0.59452-0.0843-1.2617-1.473-0.35802-1.872-0.64934-1.9876-1.4535-0.0781-0.55356-0.43221-1.2167-0.78235-1.4751-0.57325-0.41866-0.5674-0.57693 0.0516-1.5219 0.66511-1.0153 0.65348-1.0799-0.31691-1.7157-2.0304-1.3302-2.948-1.2772-5.3345 0.30705-2.197 1.4576-3.803 3.4548-3.6251 4.5053 0.17025 0.99975-0.55549 3.621-1.1346 4.1022-0.31903 0.26617-0.58111 0.74138-0.58111 1.0564 0 0.31504-0.18772 0.57319-0.4167 0.57319-0.22887 0-0.41662 0.37562-0.41662 0.83325 0 0.45785-0.18579 0.83351-0.41478 0.83351-0.22886 0-0.41853 0.32661-0.41853 0.72757-3e-3 0.4011-0.46363 1.479-1.0291 2.3946-0.56326 0.91562-1.0309 1.9718-1.0387 2.3474-0.01 0.37365-0.29348 1.2168-0.63573 1.8741-0.3424 0.65527-0.62216 1.5786-0.624 2.0501-3e-3 0.47138-0.27782 1.2207-0.61435 1.6647-0.7492 0.99173-0.80399 2.4257-0.13506 3.4977 0.40497 0.64945 0.37568 0.9489-0.15052 1.5571-0.73166 0.84331-1.3145 2.7545-0.72966 2.3926 0.69647-0.43034 0.38716 2.0326-0.47933 3.8205-0.76494 1.5826-5.943 6.3793-6.929 6.4205-0.52421 0.0216-2.2085 1.5317-2.2085 1.9816 0 0.22301-0.70235 0.92919-1.5612 1.5728-0.85871 0.64168-2.592 2.1675-3.8518 3.3901-1.2597 1.2228-2.6918 2.3262-3.1809 2.4551-0.49079 0.12718-1.6158 1.2933-2.4999 2.5921-0.88438 1.2989-1.9446 2.7348-2.3575 3.1906-0.89187 0.98792-2.7896 4.3116-2.7896 4.8868 0 0.22293-0.30494 1.0486-0.6787 1.8371-0.97223 2.048-0.40689 2.2005 0.83917 0.22481 1.4046-2.2242 2.2751-2.7094 1.1777-0.65738-2.5118 4.703-3.2609 7.8758-3.5918 15.221-0.17787 3.9497-0.1074 6.0449 0.23294 6.8703 0.47537 1.1506 0.50288 1.1073 0.82953-1.3105 0.18579-1.3752 0.53015-2.9305 0.76469-3.4567zm28.125-39.291c0.26801-3.0302 0.22887-3.3669-0.37368-3.1379-0.84701 0.32674-0.87644-0.27584-0.0493-0.96434 0.34418-0.28374 0.62779-0.91548 0.63178-1.4046 0.0105-1.3362 0.68662-2.2321 1.256-1.6628 0.34434 0.34424 0.30128 1.0192-0.15649 2.5626-0.65346 2.2028-0.57319 2.6762 0.39126 2.3065 0.32266-0.12321 0.58482-0.0183 0.58482 0.23676 0 0.2542-0.15644 0.46158-0.35019 0.46158-0.57112 0-1.3165 2.013-1.3165 3.5583 0 0.79034-0.20532 1.4379-0.45967 1.4379-0.3209 0-0.36964-1.0132-0.15849-3.394zm8.5312 3.2376c0-0.0882 0.28175-0.39131 0.62397-0.67694 0.51264-0.4246 0.62599-0.39509 0.62599 0.15853 0 0.37172-0.28155 0.67487-0.62599 0.67487-0.34222 0-0.62397-0.0699-0.62397-0.15646zm-3e-3 -2.549c0.53787-0.57112 1.0681-0.94669 1.1816-0.83534 0.27577 0.27588-1.2012 1.876-1.7333 1.876-0.23272 0 0.0166-0.46957 0.55173-1.0407zm-2.4962 0.0838c0-0.36782 0.26585-0.81786 0.59274-1.0017 0.32477-0.18399 1.2794-1.2363 2.1225-2.3396 0.84111-1.1033 1.6276-1.9093 1.7469-1.79 0.25613 0.25631-2.3415 3.8813-3.5936 5.0138-0.74921 0.67703-0.86853 0.69256-0.86853 0.11748zm-1.0075-3.4001c1.6998-1.5003 2.2555-1.7606 2.2555-1.0583 0 0.22897-0.16624 0.41673-0.37164 0.41673-0.20556 0-0.81394 0.46565-1.3538 1.0349-0.53983 0.56729-1.246 1.0368-1.5708 1.0406-0.32472 5e-3 0.14484-0.64172 1.0408-1.434zm-7.4063-1.2147c0.45574-0.77277 0.95654-1.9914 1.1152-2.7074 0.26001-1.1855 1.0522-1.8583 1.0522-0.89403 0 0.78054-2.1852 5.0081-2.588 5.0081-0.22495 0-0.0376-0.63377 0.42059-1.4066zm20.803-15.906c-0.62976-0.34022-1.1463-0.78633-1.1463-0.98966 0-0.20343-0.12131-0.71226-0.27182-1.1328-0.17413-0.48505 0.0518-0.36178 0.618 0.33652 0.48923 0.60441 1.3616 1.2168 1.9388 1.3616 0.57511 0.14468 1.0466 0.44599 1.0466 0.67108 0 0.57505-0.84717 0.48124-2.1852-0.24667zm-1.5004-4.2294c8e-3 -0.40485-0.12319-1.4865-0.28752-2.402-0.19967-1.1151-0.16055-1.5299 0.11932-1.25 0.55152 0.54965 0.95852 3.8949 0.50858 4.1725-0.19381 0.11946-0.34631-0.11329-0.34038-0.52045zm-6.3422-11.606c-1.1561-1.3929-3e-3 -4.7478 1.6355-4.7478 0.48332 0 0.41848 0.20522-0.27384 0.84893-1.3009 1.2128-1.1248 1.7821 0.31688 1.0369 1.5591-0.80603 1.5671-0.80603 2.1264 0.23857 0.39522 0.74147 0.28973 1.0623-0.68862 2.0834-1.2969 1.3538-2.2966 1.5278-3.1163 0.53994zm-20.734 78.854c0.38166-0.71219 0.33665-0.74541-0.4379-0.33061-0.47546 0.25415-0.86473 0.53396-0.86473 0.62197 0 0.0861-0.12922 0.50278-0.28567 0.92142-0.25639 0.68085-0.20734 0.6984 0.43818 0.17213 0.39902-0.32475 0.91753-0.94687 1.1501-1.3849zm-7.5488 0.62199c0-0.172 0.84284-1.2186 1.8738-2.3259 1.7919-1.925 2.2634-2.7759 1.5396-2.7759-0.67485 0-4.247 4.3662-4.247 5.1918 0 0.12316 0.18798 0.22303 0.41673 0.22303 0.22881 0 0.41681-0.14094 0.41681-0.31309zm-0.22313-3.3451c0.23671-0.2954 0.67884-0.81001 0.98196-1.1463 0.30135-0.33455 0.36796-0.61032 0.14673-0.61032-0.6378 0-2.9871 2.8697-2.9871 3.6484 0 0.532 0.17205 0.45191 0.71414-0.32662 0.39312-0.56739 0.90767-1.2717 1.1443-1.5651zm-24.203 0.22304c0.34643-0.97417 0.73762-3.1242 0.87067-4.7792 0.13102-1.6549 0.62405-3.9965 1.0956-5.2054 2.2594-5.7924 7.7466-12.399 10.299-12.399 0.97428 0 1.3654-0.28174 1.8878-1.3538 0.65167-1.338 0.64759-1.3557-0.39503-1.4888-3.0245-0.38723-11.066 5.5577-13.845 10.231-3.0574 5.149-3.9496 11.765-2.0364 15.116 0.51644 0.90377 1.0623 1.6431 1.2149 1.645 0.15252 3e-3 0.56147-0.79417 0.9076-1.7664zm31.089 1.1443c0.28958-0.34816 0.33466-0.62415 0.10189-0.62415-0.229 0-0.64941 0.27978-0.9351 0.62415-0.28959 0.34815-0.33464 0.62414-0.10158 0.62414 0.22863 0 0.64931-0.27967 0.93479-0.62414zm-62.511-3.748c0.01-0.22877-0.25078 0.0541-0.57806 0.62404-0.32748 0.57308-0.58766 1.4163-0.57827 1.8741 0.01123 0.54578 0.21069 0.33045 0.57827-0.62402 0.3087-0.80206 0.56887-1.6452 0.57806-1.8741zm20.685 2.6038c-0.05884-0.28745-0.25231-0.85883-0.43034-1.2696-0.28757-0.6671-0.12521-3.1692 0.31688-4.873 0.09007-0.34427 0.30321-1.3752 0.4735-2.2909 0.17203-0.91555 0.59075-2.283 0.92922-3.038 0.33839-0.7551 0.54176-1.5982 0.44795-1.8741-0.19184-0.57524-1.7802 3.484-2.3808 6.0821-0.64751 2.8051-0.54188 7.7836 0.16434 7.7836 0.32475 0 0.5399-0.23464 0.47924-0.52018zm-14.104-2.2906c-0.10564-0.40101-0.19172-0.0719-0.19172 0.72758 0 0.80209 0.08606 1.1308 0.19172 0.72985 0.10367-0.40117 0.10367-1.0564 0-1.4574zm16.411-5.057c0.47343-2.3806 1.0015-4.6304 1.1737-4.9981 2.0717-4.4073 3.1749-6.4028 3.6385-6.5807 0.30921-0.11927 0.55961-0.54962 0.55961-0.95861 0-0.80401 3.036-5.1038 4.5579-6.4556 0.51639-0.45774 2.4513-1.5845 4.2999-2.5022 4.069-2.0225 4.5211-2.7288 1.6923-2.6409-1.2325 0.0396-1.5651 0.13107-0.86094 0.23679 1.2812 0.19364 1.1502 0.95083-0.16241 0.95083-0.45974 0-1.4514 0.4674-2.2026 1.0406-0.7492 0.57309-1.5922 1.0408-1.8702 1.0408-0.60633 0-4.9317 4.0219-5.5301 5.143-0.3014 0.56124-0.29161 0.7061 0.03518 0.50453 0.91944-0.56719 0.42647 0.89985-0.63191 1.8801-1.0055 0.93308-2.8463 4.4642-4.4328 8.5057-1.0623 2.7036-2.1812 10.779-1.6158 11.659 0.14674 0.23081 0.31688-0.23871 0.37952-1.0408 0.06012-0.79993 0.49882-3.4037 0.97031-5.7846zm24.302 3.5448c0.1606-1.1169 0.40122-2.3336 0.53421-2.7053 0.13304-0.37187 0.096-0.546-0.0797-0.38552-0.2954 0.26597-1.4458 4.9904-1.4496 5.9567-8e-3 1.07 0.73354-1.0563 0.99564-2.8659zm-45.036-1.2556c0.13694-1.4789 0.55166-3.6854 0.91942-4.9063 0.36777-1.2185 0.96444-3.2472 1.3283-4.5072 0.75121-2.6016 1.8448-5.139 2.3084-5.3443 0.17216-0.0763 0.31301-0.38362 0.31301-0.6828 0-0.29919 0.79815-1.6413 1.7763-2.9832 0.97616-1.3438 2.0854-2.9265 2.4649-3.5211 2.5157-3.9419 11.434-10.309 16.268-11.612 1.0878-0.29344 1.9778-0.69838 1.9778-0.90173 0-0.64771-5.143 5e-3 -6.9545 0.88024-0.96245 0.46562-2.0462 0.84507-2.4081 0.84507-0.3619 0-0.77074 0.29147-0.90768 0.64959-0.13695 0.35591-0.49102 0.55557-0.78836 0.44025-0.29735-0.11349-0.76489 0.0622-1.0388 0.3931-0.27386 0.33053-0.7101 0.60055-0.97224 0.60055-0.26018 0-0.70621 0.37374-0.99181 0.83142-0.28758 0.4578-0.71405 0.83347-0.94878 0.83347-0.85489 0-6.2482 6.2069-8.179 9.4093-3.8401 6.3755-4.6668 9.2902-4.9951 17.6-0.21422 5.4266 0.37422 6.8312 0.82827 1.9757zm4.2881 0.69468c-0.13888-0.13914-0.23865 0.10748-0.2191 0.54567 0.01952 0.48517 0.11737 0.58486 0.25041 0.25238 0.12129-0.30134 0.10564-0.65933-0.03122-0.79805zm36.23 0c-0.13906-0.13914-0.23678 0.10748-0.21913 0.54567 0.0193 0.48517 0.11737 0.58486 0.25032 0.25238 0.1213-0.30134 0.10553-0.65933-0.0311-0.79805zm-44.444-3.3413c-0.03357-2.7643-0.15063-3.6601-0.36719-2.8111-0.59822 2.3514-0.43194 6.8721 0.25274 6.8721 0.09002 0 0.14164-1.8271 0.11445-4.061zm43.307-3.9752c0.71609-3.6191 1.2971-6.8039 1.295-7.0798-0.01-0.54384-0.94669 0.95668-1.6432 2.6234-0.2388 0.57112-0.61811 1.3615-0.84505 1.7566-0.93116 1.6159-2.0013 9.0301-1.4359 9.9457 0.65136 1.0524 1.3948-0.99186 2.6291-7.246zm-34.786 4.9121c0.17607-1.1602 0.1389-1.4125-0.12324-0.83141-0.3619 0.79806-0.59861 3.0281-0.28366 2.672 0.08412-0.096 0.26801-0.92329 0.4069-1.8406zm14.543-7.5609c1.5513-3.0458 2.5705-4.9082 2.815-5.139 0.1212-0.11536 0.85482-1.0524 1.6314-2.0833 0.7786-1.031 2.2732-2.7858 3.3217-3.9009 1.0486-1.115 1.5317-1.8348 1.0741-1.5982-1.8038 0.92728-7.0152 6.5672-7.9013 8.5488-0.22109 0.49873-0.50863 1.0016-0.63782 1.1152-0.3794 0.3403-2.5294 6.0858-3.1554 8.4391-1.0172 3.8206-0.59468 3.979 0.63774 0.24068 0.65338-1.9837 1.6511-4.5132 2.2145-5.6224zm21.401 5.1588c-0.11559-0.28172-0.20153 0.0517-0.19189 0.73725 0.01 0.68684 0.10183 0.91767 0.20739 0.51273 0.10561-0.40491 0.0978-0.96842-0.0161-1.25zm-34.457-3.6348c0.01952-0.55542-0.02139-0.55542-0.38146 0-0.22106 0.34237-0.3932 0.99967-0.37951 1.4575 0.02139 0.8314 0.02139 0.8314 0.37951 0 0.19758-0.45787 0.36973-1.1152 0.38146-1.4575zm54.796 1.203c2.0013-0.51051 6.133-2.6038 7.596-3.8458 0.57915-0.49295 1.8154-1.6002 2.7487-2.4592 1.0661-0.98196 2.103-1.561 2.7954-1.561 0.60439 0 1.4379-0.37553 1.8526-0.83335 0.80997-0.89598 0.30314-1.1757-0.56728-0.31284-0.42067 0.41854-0.46571 0.35584-0.22696-0.3112 0.1644-0.45974 0.46543-1.0505 0.67092-1.3165 0.22699-0.29539 0.18979-0.59663-0.0979-0.77451-0.26221-0.1606-0.76896 0.13669-1.1424 0.66701-1.6062 2.2946-4.9473 5.0488-7.7332 6.3734-5.0117 2.3846-5.8001 2.6586-8.5858 2.9714-3.7129 0.41462-5.5342 1.6062-3.036 1.9816 1.3811 0.20742 3.4742-5e-3 5.7258-0.57908zm-62.709-5.9918c0.22419-0.45972 0.81379-1.7705 1.3103-2.917 0.49726-1.1443 1.6241-3.1475 2.5063-4.4503 0.88225-1.3029 1.7254-2.8483 1.8721-3.4352 0.14671-0.58682 0.43428-1.0662 0.63969-1.0662 0.20345 0 0.36972-0.23476 0.36972-0.52032-0.0027-0.9546-3.265 3.1906-4.5091 5.726-2.6179 5.3365-4.2448 9.7243-4.2124 11.362 0.01571 0.78843 0.26312 0.37556 0.81927-1.3674 0.4382-1.3753 0.98007-2.8738 1.2041-3.3313zm17.117 2.185c2.3768-5.0177 4.243-7.8797 6.7881-10.401 5.2233-5.1802 9.7559-7.1012 16.63-7.0542 2.2379 0.0165 4.0592-0.14474 4.0592-0.35812 0-0.5946-1.8954-1.6999-3.5662-2.0774-2.281-0.51453-8.4138 0.21521-11.851 1.4123-3.4898 1.2129-6.2776 3.0068-9.701 6.2443-2.9089 2.7504-4.8769 6.7374-5.1664 10.464-0.18584 2.408 0.33061 4.7906 1.0388 4.7906 0.1878 0 0.98398-1.3594 1.7684-3.0203zm-8.3649 0.39326c-0.02736-0.88028-0.04103-0.88429-0.38734-0.0797-0.49297 1.1462-0.49297 1.5533 0 1.2479 0.22888-0.14075 0.40299-0.66706 0.38734-1.1678zm14.987-2.1635c0-0.22894-0.35987 0.24063-0.79812 1.0426-0.44016 0.80022-0.7981 1.6451-0.7981 1.874 0 0.22886 0.35793-0.2406 0.7981-1.0426 0.43825-0.80013 0.79812-1.6432 0.79812-1.874zm-14.333-2.7056c0.581-1.1465 0.99377-2.0833 0.91943-2.0833-0.29931 0-1.8604 2.3631-2.1382 3.2357-0.51058 1.61 0.12324 1.0112 1.2187-1.1524zm4.7889-4.3977c0-0.10145-0.18584-0.18397-0.41472-0.18397-0.23084 0-0.41668 0.19973-0.41668 0.44236 0 0.24237 0.18584 0.3248 0.41668 0.18185 0.22888-0.14077 0.41472-0.33834 0.41472-0.44024zm13.156-2.3258c0.46944-0.76109-1.2227 0.3148-2.1245 1.3496l-0.82755 0.95098 1.3401-0.93127c0.73739-0.51232 1.4632-1.1286 1.612-1.3693zm14.953-0.19965c0.45975-0.28555 1.7274-0.74128 2.819-1.0133 1.8955-0.47336 2.725-1.0251 2.2515-1.5004-0.37755-0.37764-4.9924 1.1443-6.3051 2.0776-1.4416 1.0268-2.7211 2.2514-2.7211 2.6038 0 0.21292 1.1054-0.39326 3.9556-2.1677zm-20.404-4.8925c2.7036-2.0287 5.8706-3.5838 8.6447-4.2451 0.63188-0.14857 1.2363-0.41476 1.3439-0.58676 0.31095-0.50676-4.832 1.0115-6.7002 1.9757-2.5881 1.338-6.4184 4.3213-8.8578 6.8997-2.5548 2.7016-2.4042 3.1281 0.19758 0.5634 1.3518-1.3321 3.7677-3.4039 5.3718-4.6069zm22.379 2.0149c2.5588-0.81182 2.8034-0.96443 1.5924-0.9936-1.7291-0.0419-4.2978 1.1462-6.2735 2.8991l-1.4576 1.293 1.5592-1.1191c0.85677-0.61608 2.9188-1.5511 4.5794-2.0794zm-11.338 0.7101c-0.2776-0.0917-0.8136 0.14877-1.1931 0.53408-0.64376 0.65922-0.61051 0.669 0.50454 0.16818 0.65733-0.29332 0.96633-0.61028 0.68853-0.70226zm24.563-6.5905c0-0.36785-1.5043 0.65732-2.2946 1.5612-0.67888 0.77662-0.54577 0.73541 0.7337-0.21914 0.85859-0.64371 1.5609-1.2462 1.5609-1.342zm-18.152-1.8056c-0.2621-0.26208-1.3145-0.27978-2.893-0.0526l-2.4826 0.36199 2.8932 0.0526c1.9113 0.0336 2.7545-0.0902 2.4824-0.36191zm30.424-9.0535c0.57901-0.85487 1.0466-1.8388 1.0367-2.1871-0.0106-0.34619-0.38338 0.0583-0.82942 0.90395-0.44613 0.84294-0.99953 1.651-1.2306 1.7938-0.42045 0.26016-0.59079 1.0426-0.22679 1.0426 0.10553 0 0.66902-0.69841 1.2501-1.5533zm30.965-17.215c-0.27177-0.77855-0.85677-1.7938-1.3028-2.2555-0.90782-0.93898-0.88216-0.8314 0.47136 2.013 1.0781 2.2614 1.5866 2.4101 0.83139 0.24256zm1.1249-0.77285c-0.30304-0.9506-1.0525-1.1816-1.0525-0.3225 0 0.59264 0.88436 1.6294 1.1562 1.3576 0.0942-0.0943 0.0475-0.55957-0.10373-1.0351zm-9.1005-12.8c-0.12318-0.12314-0.44396-0.0882-0.71396 0.0782-0.36196 0.22312-0.34232 0.39314 0.0759 0.65348 0.55566 0.34417 1.0935-0.27394 0.63766-0.73181zm-0.0293-3.3607c-0.44599-0.44418-2.2869 0.49676-2.4961 1.2774-0.44412 1.6568-0.2622 1.698 1.1972 0.28372 0.79995-0.77474 1.3829-1.477 1.2989-1.5611zm-15.867 0.7845c0.22897-0.14095 0.51065-0.27004 0.62402-0.28591 0.98803-0.12697 2.6294-0.95254 4.3743-2.2006 1.512-1.0837 2.7074-1.5688 4.3722-1.7781 1.2597-0.15664 2.8052-0.42262 3.4352-0.58697 1.0602-0.27576 1.1443-0.20536 1.1443 0.93712 0 1.1052 0.11541 1.2148 1.0741 1.0328 1.5923-0.30521 2.5822-2.5764 1.9228-4.4015-0.27385-0.75699-0.49684-1.9601-0.49684-2.6742 0-1.5983-0.6357-2.0794-1.2441-0.94493-0.61033 1.1405-1.9308 1.0642-3.5995-0.20919l-1.3811-1.0544-0.26401 1.0544c-0.15654 0.62209-0.56145 1.0543-0.99 1.0543-0.85868 0-3.2648-1.1188-4.2762-1.9895-0.64961-0.56145-0.75709-0.51448-1.1347 0.47725-0.50459 1.3304-1.6041 1.4145-2.8855 0.22113-1.0915-1.0192-1.3537-0.85289-1.9367 1.2208-0.49893 1.7822-1.7254 2.1929-3.355 1.1268-1.0074-0.66123-1.8388-0.56141-1.8388 0.21718 0 0.21508 0.20537 0.39109 0.45773 0.39109 0.25055 0 0.95463 0.35632 1.567 0.79246 0.6103 0.43432 1.5766 0.87039 2.146 0.96637 0.92523 0.15841 0.95272 0.2152 0.26018 0.52233-0.49688 0.21921-1.1699 0.11732-1.874-0.28756-1.4261-0.81771-3.3883-1.2813-3.3883-0.79821 0 0.20745 0.27975 0.91358 0.62203 1.5689 0.34227 0.65533 0.62225 1.8587 0.62409 2.6722 3e-3 1.3265 0.18583 1.5689 1.7724 2.3397 1.7666 0.85886 3.482 1.1071 4.2684 0.6163zm6.1446-8.9127c-0.73741-0.51449-1.3439-1.078-1.3478-1.2481-0.0161-0.62592 1.1326-0.29156 1.8955 0.55357 0.78655 0.86674 1.0799 0.87838 4.032 0.15062 1.602-0.39319 1.4631 0.45584-0.16648 1.0252-1.9306 0.67284-2.9185 0.56537-4.4132-0.48125zm-7.1852 0.18967c0-0.21905 0.30326-0.65135 0.67297-0.95844 0.58093-0.48337 0.65136-0.45204 0.52029 0.22676-0.15641 0.80992-1.1933 1.4457-1.1933 0.73168z" stroke-width=".19562"/></g></svg>
