<?xml version="1.0" encoding="UTF-8" standalone="no"?>
<svg
   xmlns:dc="http://purl.org/dc/elements/1.1/"
   xmlns:cc="http://creativecommons.org/ns#"
   xmlns:rdf="http://www.w3.org/1999/02/22-rdf-syntax-ns#"
   xmlns:svg="http://www.w3.org/2000/svg"
   xmlns="http://www.w3.org/2000/svg"
   xmlns:sodipodi="http://sodipodi.sourceforge.net/DTD/sodipodi-0.dtd"
   xmlns:inkscape="http://www.inkscape.org/namespaces/inkscape"
   inkscape:version="1.0beta2 (2b71d25, 2019-12-03)"
   sodipodi:docname="white-logo-new.svg"
   width="371.64731"
   height="75.526543"
   viewBox="0 0 98.331684 19.983064"
   version="1.1"
   id="svg8">
  <sodipodi:namedview
     inkscape:current-layer="svg8"
     inkscape:window-maximized="0"
     inkscape:window-y="0"
     inkscape:window-x="0"
     inkscape:cy="35.323701"
     inkscape:cx="191.45849"
     inkscape:zoom="1.9654686"
     fit-margin-bottom="0"
     fit-margin-right="0"
     fit-margin-left="0"
     fit-margin-top="0"
     showgrid="false"
     id="namedview838"
     inkscape:window-height="900"
     inkscape:window-width="1440"
     inkscape:pageshadow="2"
     inkscape:pageopacity="0"
     guidetolerance="10"
     gridtolerance="10"
     objecttolerance="10"
     borderopacity="1"
     inkscape:document-rotation="0"
     bordercolor="#666666"
     pagecolor="#ffffff" />
  <defs
     id="defs2" />
  <metadata
     id="metadata5">
    <rdf:RDF>
      <cc:Work
         rdf:about="">
        <dc:format>image/svg+xml</dc:format>
        <dc:type
           rdf:resource="http://purl.org/dc/dcmitype/StillImage" />
        <dc:title></dc:title>
      </cc:Work>
    </rdf:RDF>
  </metadata>
  <g
     transform="matrix(1.5171758,0,0,1.5171758,-115.02655,-61.69829)"
     style="fill:#ffffff"
     id="layer2">
    <path
       inkscape:connector-curvature="0"
       style="fill:#ffffff;stroke-width:0.0898875"
       d="m 76.411457,53.723741 c -0.209754,-0.106482 -0.224589,-0.158768 -0.22277,-0.785191 0.0011,-0.369112 0.04152,-1.13628 0.08989,-1.704819 0.129427,-1.521402 0.0588,-3.309228 -0.223711,-5.662912 -0.04451,-0.370786 -0.126279,-1.289508 -0.181718,-2.041603 -0.118986,-1.614158 -0.08786,-1.733673 0.451586,-1.733673 0.595169,0 0.685015,0.167054 0.755729,1.405161 0.03351,0.58671 0.0761,1.329667 0.09464,1.651015 0.01854,0.321347 0.07586,1.089886 0.127376,1.707862 0.05151,0.617977 0.09458,1.153931 0.0957,1.19101 0.0069,0.22677 0.385028,-0.08655 1.57897,-1.308215 0.739428,-0.756597 1.708458,-1.815483 2.153401,-2.353082 0.444943,-0.537599 0.95913,-1.135261 1.142637,-1.32814 0.346227,-0.36391 0.360921,-0.366189 0.947248,-0.146845 0.318262,0.11906 0.262374,0.506275 -0.135952,0.941945 -0.184777,0.202099 -0.457306,0.515138 -0.60562,0.69564 -0.655183,0.797376 -1.920987,2.175299 -3.172453,3.453455 -0.459457,0.469256 -0.820515,0.898932 -0.802349,0.954835 0.01816,0.0559 0.131164,0.153183 0.251108,0.216179 0.119945,0.063 0.683249,0.438731 1.251787,0.834966 1.882833,1.312215 2.823347,1.928008 3.550557,2.324695 1.07488,0.586338 1.483144,0.887915 1.483144,1.095572 0,0.683735 -0.589679,0.720697 -1.488215,0.09328 -0.343278,-0.239698 -0.860917,-0.564226 -1.150309,-0.721173 -0.473252,-0.256661 -1.313325,-0.8148 -3.897054,-2.589174 -0.455247,-0.312642 -0.865531,-0.568438 -0.911742,-0.568438 -0.07612,0 -0.180469,1.642615 -0.227338,3.578582 -0.01939,0.800768 -0.08147,0.912995 -0.505105,0.913092 -0.123596,2.8e-5 -0.325842,-0.05129 -0.449438,-0.114027 z m 50.526873,-0.120026 c -0.12064,-0.0845 -0.1867,-0.264609 -0.21784,-0.593945 -0.0246,-0.259968 -0.12533,-0.856939 -0.22388,-1.326601 -0.16529,-0.787776 -0.28937,-1.686862 -0.3218,-2.331704 -0.0189,-0.375183 -0.12184,-0.429915 -0.24333,-0.129347 -0.39311,0.972537 -1.2711,2.371163 -1.48849,2.371163 -0.0633,0 -0.15673,0.07766 -0.20753,0.172576 -0.27073,0.505876 -2.06989,0.51936 -2.64085,0.01979 -0.42984,-0.376084 -1.13346,-1.713993 -1.36884,-2.602783 -0.23163,-0.874621 -0.43644,-2.597756 -0.5431,-4.569307 -0.0574,-1.061155 0.0181,-1.847214 0.25337,-2.638243 0.18315,-0.615704 0.5616,-0.797997 0.97005,-0.467251 l 0.20002,0.161961 -0.20409,0.80433 c -0.21853,0.861228 -0.24276,1.410701 -0.13853,3.141404 0.0729,1.209683 0.24384,2.430048 0.45339,3.235951 0.13118,0.504467 0.72541,1.800514 0.97208,2.120146 0.31426,0.407211 1.0046,0.436607 1.50827,0.06423 0.48692,-0.359992 1.05874,-1.329323 1.35661,-2.299689 0.10194,-0.33208 0.21812,-0.644232 0.25818,-0.69367 0.0401,-0.04944 0.0763,-0.120225 0.0805,-0.157303 0.004,-0.03708 0.0129,-0.07753 0.0192,-0.08989 0.006,-0.01236 0.0217,-0.123595 0.0341,-0.24719 0.0124,-0.123596 0.1285,-0.70818 0.25807,-1.299077 0.24419,-1.11355 0.29318,-1.991663 0.14568,-2.61103 -0.26221,-1.101008 -0.18451,-1.573031 0.25892,-1.573031 0.3662,0 0.5371,0.247082 0.72296,1.045267 0.19686,0.845396 0.27014,1.888361 0.33026,4.700781 0.0248,1.158082 0.0611,2.131676 0.0808,2.163543 0.0197,0.03187 0.0595,0.257376 0.0884,0.501133 0.0579,0.487482 0.38212,2.099782 0.49947,2.483855 0.14366,0.470231 -0.48858,0.926581 -0.89212,0.64393 z m -14.40461,-0.114673 c -0.20176,-0.163204 -0.21505,-0.241723 -0.27,-1.595503 -0.0532,-1.311591 -0.24236,-2.647349 -0.66611,-4.704745 -0.0662,-0.321348 -0.2206,-1.089886 -0.34314,-1.707863 -0.12253,-0.617976 -0.30611,-1.447189 -0.40795,-1.842694 -0.10184,-0.395505 -0.18578,-0.822604 -0.18654,-0.94911 -0.003,-0.491757 -0.0717,-0.510359 -2.08992,-0.565358 -1.05686,-0.0288 -1.94223,-0.09276 -2.04494,-0.147728 -0.19131,-0.102389 -0.23591,-0.404142 -0.0931,-0.629935 0.0723,-0.114249 0.36364,-0.130349 1.90874,-0.105463 1.53819,0.02477 1.85157,0.0076 2.00322,-0.109501 0.21497,-0.166057 0.61191,-0.184222 0.88082,-0.04031 0.33182,0.177588 3.57415,0.08014 3.95249,-0.11879 0.17395,-0.09146 0.27636,-0.05219 0.58241,0.223329 0.26087,0.234841 0.25922,0.558696 -0.004,0.730975 -0.19594,0.128384 -1.1454,0.189493 -3.42385,0.220365 l -0.61858,0.0084 0.0515,0.337078 c 0.0283,0.185393 0.0913,0.55955 0.13986,0.831459 0.0486,0.27191 0.11006,0.61573 0.13658,0.764044 0.23506,1.314427 0.34447,1.880473 0.46039,2.382019 0.14947,0.646729 0.27999,1.317933 0.34958,1.79775 0.0251,0.173034 0.0909,0.496629 0.14617,0.7191 0.1155,0.464648 0.13747,0.61578 0.2679,1.842694 0.0525,0.494381 0.13662,1.238018 0.18682,1.652526 0.0871,0.719271 0.0821,0.763351 -0.1085,0.966291 -0.24166,0.257231 -0.52509,0.271571 -0.81015,0.04099 z m -7.44815,-0.01351 c -0.32135,-0.04066 -1.19101,-0.07334 -1.93258,-0.07264 -1.83511,0.0017 -1.77354,0.0074 -1.95963,-0.178736 -0.14206,-0.142061 -0.169,-0.342221 -0.19043,-1.415023 -0.0264,-1.319463 -0.1337,-2.525243 -0.36331,-4.081012 -0.21509,-1.457417 -0.22604,-1.526108 -0.36532,-2.292132 -0.289873,-1.594305 -0.42386,-2.357657 -0.485525,-2.766177 -0.03562,-0.236006 -0.11235,-0.47668 -0.170501,-0.534831 -0.137254,-0.137254 -0.135981,-0.54289 0.0021,-0.681008 0.169483,-0.169484 0.653646,-0.129533 0.833086,0.06874 0.16306,0.180183 0.35026,0.82571 0.49618,1.711032 0.0744,0.451353 0.2659,1.550216 0.40731,2.337075 0.0311,0.173033 0.0546,0.395505 0.0521,0.494381 -0.002,0.09888 0.0344,0.301123 0.0818,0.449437 0.14669,0.45889 0.6284,4.466483 0.6284,5.227958 0,0.776235 -0.18965,0.730046 2.97885,0.725494 l 2.80347,-0.004 0.16879,0.208443 c 0.38429,0.474572 -0.11701,0.799425 -1.23363,0.799425 -0.40714,0 -0.83626,0.01744 -0.9536,0.03876 -0.11733,0.02132 -0.47625,0.0055 -0.7976,-0.03516 z m 29.10133,-0.871014 c -0.14773,-0.166008 -0.44901,-2.655076 -0.42395,-3.50248 0.0151,-0.509202 -0.16581,-2.889655 -0.2338,-3.077218 -0.026,-0.07165 -0.0663,-0.617715 -0.0895,-1.213481 -0.0233,-0.595767 -0.0789,-1.285459 -0.1236,-1.53265 -0.0447,-0.24719 -0.131,-0.722741 -0.19175,-1.056779 -0.10037,-0.551853 -0.0957,-0.623712 0.0517,-0.786516 0.1909,-0.210937 0.38248,-0.223686 0.62338,-0.04148 0.25407,0.192169 0.34112,0.165585 0.57301,-0.174991 0.1145,-0.168154 0.31675,-0.333471 0.44944,-0.36737 0.1327,-0.0339 0.32216,-0.08538 0.42104,-0.114406 0.52296,-0.153511 1.01541,-0.06259 1.791,0.330672 0.84249,0.427178 1.35124,0.910333 1.71279,1.626606 0.24429,0.483947 0.41825,1.246008 0.36351,1.59237 -0.0217,0.137678 -0.0633,0.402009 -0.0923,0.587401 -0.0405,0.258899 -0.0943,0.337079 -0.23164,0.337079 -0.15022,0 -0.16366,0.02841 -0.0839,0.177413 0.0792,0.14797 0.0396,0.23874 -0.23887,0.546916 -0.3207,0.354983 -1.40267,0.983533 -1.69302,0.983533 -0.30004,0 -0.25352,0.286334 0.0996,0.613286 0.77857,0.720809 2.1801,1.96473 2.49922,2.218171 0.18675,0.148314 0.48753,0.400184 0.66839,0.559711 0.18086,0.159527 0.36018,0.290988 0.39848,0.292134 0.0383,0.0012 0.11016,0.108669 0.15969,0.238938 0.16903,0.444595 -0.35048,0.866125 -0.78256,0.634962 -0.0912,-0.04881 -0.43075,-0.33572 -0.75448,-0.637581 -0.32374,-0.301862 -0.78891,-0.72576 -1.03371,-0.941997 -0.2448,-0.216237 -0.93525,-0.855241 -1.53433,-1.420011 -0.59908,-0.564769 -1.25484,-1.148635 -1.45723,-1.297479 l -0.368,-0.270625 0.047,0.926592 c 0.0258,0.509626 0.0879,1.270413 0.13788,1.690637 0.05,0.420224 0.12736,1.107863 0.17194,1.528087 0.0446,0.420224 0.10345,0.89169 0.13082,1.047701 0.0408,0.232675 0.007,0.317494 -0.18954,0.47191 -0.29173,0.229476 -0.58942,0.24134 -0.77663,0.03095 z m 0.70073,-6.319409 c 0.13987,-0.154553 0.22623,-0.173688 0.53079,-0.117606 0.47505,0.08748 1.01294,0.05324 1.25169,-0.07967 0.10488,-0.05838 0.21092,-0.109019 0.23564,-0.112523 0.0247,-0.0035 0.14607,-0.06044 0.26966,-0.126527 0.42941,-0.229607 0.71546,-0.578989 0.84838,-1.03622 0.12059,-0.414826 0.11856,-0.520748 -0.0212,-1.10257 -0.25387,-1.056783 -0.97487,-1.843549 -1.92353,-2.098999 -0.64441,-0.173521 -0.91074,0.0038 -1.22217,0.81376 -0.3102,0.80673 -0.40773,1.532221 -0.34778,2.586988 0.0301,0.529963 0.0559,1.074804 0.0572,1.210759 0.003,0.294667 0.0951,0.312633 0.32137,0.0626 z m -38.583322,6.295236 c -0.351821,-0.140218 -0.45855,-0.4401 -0.511254,-1.436499 -0.05977,-1.130034 -0.144627,-1.786495 -0.238418,-1.844461 -0.0379,-0.02342 -0.210139,0.25099 -0.382763,0.609802 -0.482113,1.002106 -1.490951,1.863082 -2.366852,2.01995 -1.005396,0.180059 -1.764069,-0.08855 -2.496804,-0.884003 -0.799188,-0.86759 -1.258648,-2.042183 -1.67364,-4.278596 -0.148712,-0.801413 -0.23251,-1.70564 -0.398202,-4.296836 -0.04978,-0.778488 0.04773,-0.943819 0.556657,-0.943819 0.507819,0 0.670152,0.262606 0.626412,1.013343 -0.05586,0.958832 0.100322,3.318552 0.289008,4.366426 0.194286,1.078974 0.61972,2.415717 0.958844,3.012755 0.295391,0.520044 0.906125,1.114893 1.21412,1.182539 0.764792,0.167977 2.0041,-0.780535 2.527749,-1.934625 0.597137,-1.316058 0.889952,-4.298876 0.624386,-6.360444 -0.06058,-0.470251 -0.04817,-0.584703 0.0755,-0.696628 0.19987,-0.180879 0.569902,-0.169134 0.73641,0.02337 0.250227,0.289301 0.521682,2.521092 0.700881,5.762348 0.08774,1.587038 0.194356,2.456083 0.508844,4.147749 0.07501,0.403482 -0.34068,0.701111 -0.750882,0.537624 z"
       id="path921" />
  </g>
</svg>
